<?xml version="1.0" encoding="UTF-8" standalone="no"?>
<svg
   version="1.1"
   width="419.9890mm"
   height="297.0022mm"
   viewBox="0.0000 0.0000 419.9890 297.0022"
   id="svg56"
   sodipodi:docname="by.svg"
   inkscape:version="1.4 (e7c3feb1, 2024-10-09)"
   xmlns:inkscape="http://www.inkscape.org/namespaces/inkscape"
   xmlns:sodipodi="http://sodipodi.sourceforge.net/DTD/sodipodi-0.dtd"
   xmlns="http://www.w3.org/2000/svg"
   xmlns:svg="http://www.w3.org/2000/svg"
   xmlns:rdf="http://www.w3.org/1999/02/22-rdf-syntax-ns#"
   xmlns:cc="http://creativecommons.org/ns#"
   xmlns:dc="http://purl.org/dc/elements/1.1/">
  <defs
     id="defs56" />
  <sodipodi:namedview
     id="namedview56"
     pagecolor="#ffffff"
     bordercolor="#000000"
     borderopacity="0.25"
     inkscape:showpageshadow="2"
     inkscape:pageopacity="0.0"
     inkscape:pagecheckerboard="0"
     inkscape:deskcolor="#d1d1d1"
     inkscape:document-units="mm"
     showgrid="false"
     inkscape:zoom="0.69446199"
     inkscape:cx="766.78063"
     inkscape:cy="533.50652"
     inkscape:window-width="1624"
     inkscape:window-height="926"
     inkscape:window-x="36"
     inkscape:window-y="73"
     inkscape:window-maximized="0"
     inkscape:current-layer="svg56" />
  <title
     id="title1">SVG Image created as prod-B_Silkscreen.svg date 2025/06/06 19:28:36 </title>
  <desc
     id="desc1">Image generated by PCBNEW </desc>
  <g
     id="g57"
     transform="translate(99.622862,6.8163011)">
    <g
       id="g60">
      <path
         id="path75"
         style="font-style:italic;font-weight:bold;font-size:50.8px;font-family:'FONTSPRING DEMO - Visby CF Bold';-inkscape-font-specification:'FONTSPRING DEMO - Visby CF Bold,  Bold Italic';text-align:center;letter-spacing:0px;word-spacing:0px;text-anchor:middle;fill:#00ffff;stroke-width:0.302875;stroke-linecap:round;stroke-linejoin:round"
         d="m 156.08073,116.82145 c -6.94571,0 -12.61646,5.58291 -12.61646,12.8803 0,7.07758 5.09951,10.85812 10.94622,10.85812 3.95641,0 7.20944,-1.6705 9.40745,-4.04435 L 161.4881,133.658 c -1.84633,1.40672 -3.86851,2.066 -6.06652,2.066 -3.34097,0 -5.93494,-1.58264 -6.55039,-4.74777 h 17.10085 c 2.24197,-9.935 -3.95668,-14.15478 -9.89131,-14.15478 z m -0.43958,4.50942 c 2.85741,0 5.40696,1.53872 5.53884,4.87969 h -12.04496 c 0.92317,-2.85741 3.25307,-4.87969 6.50612,-4.87969 z" />
      <path
         style="font-style:italic;font-weight:bold;font-size:50.8px;font-family:'FONTSPRING DEMO - Visby CF Bold';-inkscape-font-specification:'FONTSPRING DEMO - Visby CF Bold,  Bold Italic';text-align:center;letter-spacing:0px;word-spacing:0px;text-anchor:middle;fill:#00ffff;stroke-width:0.302875;stroke-linecap:round;stroke-linejoin:round"
         d="m 209.05284,148.01467 h 5.93462 l 16.35318,-31.21172 h -6.15442 l -7.91283,15.82566 -4.61582,-15.82566 h -6.0665 l 7.12154,22.41969 z"
         id="path78" />
      <path
         style="font-style:italic;font-weight:bold;font-size:50.8px;font-family:'FONTSPRING DEMO - Visby CF Bold';-inkscape-font-specification:'FONTSPRING DEMO - Visby CF Bold,  Bold Italic';text-align:center;letter-spacing:0px;word-spacing:0px;text-anchor:middle;fill:#00ffff;stroke-width:0.302875;stroke-linecap:round;stroke-linejoin:round"
         d="m 183.0723,139.66224 h 5.89067 l 1.36276,-13.01221 c 0.35168,-3.25305 2.15405,-5.01146 4.83562,-5.01146 2.63761,0 4.17622,1.75841 3.82454,5.01146 l -1.36277,13.01221 h 5.93463 l 1.40672,-13.27597 c 0.70336,-6.98967 -2.68157,-10.02292 -7.60511,-10.02292 -3.69265,0 -6.24234,1.71444 -7.73699,3.86849 -1.23088,-2.68157 -3.60473,-3.86849 -6.50611,-3.86849 -3.07721,0 -5.27522,1.40672 -6.63798,3.29701 l 0.30772,-2.85741 h -5.89066 l -2.37385,22.85929 h 5.89066 l 1.36277,-13.01221 c 0.35168,-3.25305 2.11008,-5.01146 4.79165,-5.01146 2.68158,0 4.17622,1.75841 3.82454,5.01146 z"
         id="path77" />
      <path
         style="font-style:italic;font-weight:bold;font-size:50.8px;font-family:'FONTSPRING DEMO - Visby CF Bold';-inkscape-font-specification:'FONTSPRING DEMO - Visby CF Bold,  Bold Italic';text-align:center;letter-spacing:0px;word-spacing:0px;text-anchor:middle;fill:#00ffff;stroke-width:0.302875;stroke-linecap:round;stroke-linejoin:round"
         d="m 117.39581,139.66224 h 5.89067 l 1.3188,-12.48469 c 0.35168,-3.34097 2.15405,-5.53898 5.31918,-5.53898 3.12118,0 4.79166,2.19801 4.39602,5.53898 l -1.27484,12.48469 h 5.89066 l 1.40672,-13.45181 c 0.70336,-6.94571 -3.07721,-9.84708 -7.73699,-9.84708 -3.38493,0 -5.75878,1.49464 -7.20946,3.42889 l 1.23088,-11.34172 h -5.93462 z"
         id="path74" />
      <path
         id="path72"
         style="font-style:italic;font-weight:bold;font-size:50.8px;font-family:'FONTSPRING DEMO - Visby CF Bold';-inkscape-font-specification:'FONTSPRING DEMO - Visby CF Bold,  Bold Italic';text-align:center;letter-spacing:0px;word-spacing:0px;text-anchor:middle;fill:#00ffff;stroke-width:0.302875;stroke-linecap:round;stroke-linejoin:round"
         d="m 105.65828,116.36353 c -4.04434,0 -6.901527,2.24182 -7.73677,3.51667 h -0.263848 l 0.351941,-3.07709 h -5.890784 l -3.253278,31.21135 h 5.890784 l 1.231101,-11.42963 h 0.219568 c 0.615442,1.27484 3.209058,3.51712 7.385276,3.51712 6.63798,0 11.7373,-6.0225 11.7373,-13.31989 0,-6.9457 -4.74776,-10.41853 -9.67129,-10.41853 z m -1.80216,5.275 c 2.81345,0 5.58311,1.71467 5.58311,5.71504 0,5.01146 -3.8246,7.47293 -7.20954,7.47293 -2.813448,0 -5.583112,-1.71421 -5.583112,-5.71459 0,-5.01146 3.824602,-7.47338 7.209542,-7.47338 z" />
      <path
         style="font-style:italic;font-weight:bold;font-size:50.8px;font-family:'FONTSPRING DEMO - Visby CF Bold';-inkscape-font-specification:'FONTSPRING DEMO - Visby CF Bold,  Bold Italic';text-align:center;letter-spacing:0px;word-spacing:0px;text-anchor:middle;fill:#00ffff;stroke-width:0.302875;stroke-linecap:round;stroke-linejoin:round"
         d="m 78.139406,140.10184 c 5.01146,0 8.923915,-2.76949 8.923915,-7.38531 0,-3.82453 -2.725531,-5.45106 -5.1873,-6.37422 L 79.15049,125.2433 c -1.494646,-0.57148 -1.934248,-1.27484 -1.934248,-2.15405 0,-1.3188 0.967124,-2.02216 2.50573,-2.02216 1.274845,0 2.54969,0.48356 3.209093,2.37385 l 4.659778,-1.31881 c -0.483562,-3.38493 -3.604734,-5.75878 -7.69303,-5.75878 -4.527898,0 -8.440354,2.90137 -8.440354,7.07759 0,2.50573 1.450686,4.79165 4.83562,6.0665 l 2.505729,0.96712 c 1.714447,0.65941 2.41781,1.27485 2.41781,2.50573 0,1.75841 -1.494646,2.41781 -2.989292,2.41781 -2.329889,0 -3.472854,-1.58256 -3.824535,-3.07721 l -4.791659,1.36277 c 0.395642,4.17621 3.956416,6.41818 8.528274,6.41818 z"
         id="path71" />
      <path
         id="path69"
         style="font-style:italic;font-weight:bold;font-size:50.8px;font-family:'FONTSPRING DEMO - Visby CF Bold';-inkscape-font-specification:'FONTSPRING DEMO - Visby CF Bold,  Bold Italic';text-align:center;letter-spacing:0px;word-spacing:0px;text-anchor:middle;fill:#00ffff;stroke-width:0.302875;stroke-linecap:round;stroke-linejoin:round"
         d="m 54.620488,116.36353 c -6.813827,0 -12.001136,5.89026 -12.001136,13.14369 0,6.98967 4.791754,10.59473 9.803214,10.59473 3.956416,0 6.858107,-2.24228 7.56147,-3.51712 h 0.263389 l -0.351482,3.07754 h 5.934597 l 2.373668,-22.85926 h -5.890335 l -0.351932,3.07709 h -0.263839 c -0.527522,-1.27485 -2.857437,-3.51667 -7.077614,-3.51667 z m 0.967262,5.275 c 2.769491,0 5.715039,1.62647 5.715039,5.80269 0,4.74769 -3.649032,7.38528 -7.121885,7.38528 -2.769491,0 -5.670767,-1.62648 -5.670767,-5.80269 0,-4.7477 3.60476,-7.38528 7.077613,-7.38528 z" />
      <path
         style="font-style:italic;font-weight:bold;font-size:50.8px;font-family:'FONTSPRING DEMO - Visby CF Bold';-inkscape-font-specification:'FONTSPRING DEMO - Visby CF Bold,  Bold Italic';text-align:center;letter-spacing:0px;word-spacing:0px;text-anchor:middle;fill:#00ffff;stroke-width:0.302875;stroke-linecap:round;stroke-linejoin:round"
         d="m 32.201008,139.66224 h 5.890663 l 3.253053,-31.21172 H 35.45406 Z"
         id="path68" />
      <path
         id="text56"
         style="font-style:italic;font-weight:bold;font-size:50.8px;font-family:'FONTSPRING DEMO - Visby CF Bold';-inkscape-font-specification:'FONTSPRING DEMO - Visby CF Bold,  Bold Italic';text-align:center;letter-spacing:0px;word-spacing:0px;text-anchor:middle;fill:#00ffff;stroke-width:0.302875;stroke-linecap:round;stroke-linejoin:round"
         d="m 5.3458727,108.45057 -3.2532787,31.2118 h 5.8907818 l 0.2526602,-2.42554 a 13.320112,13.320112 0 0 0 8.793018,3.32349 13.320112,13.320112 0 0 0 13.319889,-13.31988 13.320112,13.320112 0 0 0 -13.319889,-13.32033 13.320112,13.320112 0 0 0 -6.545462,1.75654 l 0.75306,-7.22608 z" />
    </g>
  </g>
  <metadata
     id="metadata57">
    <rdf:RDF>
      <cc:Work
         rdf:about="">
        <dc:title>SVG Image created as prod-B_Silkscreen.svg date 2025/06/06 19:28:36 </dc:title>
      </cc:Work>
    </rdf:RDF>
  </metadata>
  <g
     id="g59">
    <g
       id="text57"
       style="font-style:italic;font-weight:bold;font-size:1.89587px;font-family:'FONTSPRING DEMO - Visby CF Bold';-inkscape-font-specification:'FONTSPRING DEMO - Visby CF Bold,  Bold Italic';text-align:center;letter-spacing:0px;word-spacing:0px;text-anchor:middle;fill:#00ffff;stroke-width:0.0130621;stroke-linecap:round;stroke-linejoin:round"
       aria-label="by dohn-joh">
      <path
         d="m 297.51807,150.56896 c 0.28628,0 0.5062,-0.25973 0.5062,-0.57445 0,-0.29954 -0.20476,-0.44932 -0.41709,-0.44932 -0.17442,0 -0.29766,0.0967 -0.33368,0.15167 h -0.0114 l 0.0531,-0.49292 h -0.25404 l -0.1403,1.34606 h 0.25405 l 0.0152,-0.13271 h 0.009 c 0.0265,0.055 0.1384,0.15167 0.31851,0.15167 z m -0.29955,-0.47397 c 0,-0.21612 0.16494,-0.32229 0.31093,-0.32229 0.12133,0 0.24077,0.0739 0.24077,0.24646 0,0.21613 -0.16494,0.3223 -0.31092,0.3223 -0.12134,0 -0.24078,-0.0739 -0.24078,-0.24647 z m 0.95931,0.81523 h 0.25594 l 0.70527,-1.34607 h -0.26542 l -0.34126,0.68251 -0.19907,-0.68251 h -0.26163 l 0.30713,0.96689 z m 1.8371,-0.34126 c 0.17063,0 0.29576,-0.0967 0.32609,-0.15167 h 0.0114 l -0.0152,0.13271 h 0.25594 l 0.14029,-1.34606 h -0.25404 l -0.0531,0.49292 h -0.0114 c -0.0228,-0.055 -0.12323,-0.15167 -0.30524,-0.15167 -0.29386,0 -0.51757,0.25405 -0.51757,0.56687 0,0.30144 0.20665,0.4569 0.42278,0.4569 z m -0.16873,-0.47776 c 0,-0.20475 0.15546,-0.3185 0.30523,-0.3185 0.11944,0 0.24647,0.0701 0.24647,0.25025 0,0.20476 -0.15736,0.31851 -0.30714,0.31851 -0.11944,0 -0.24456,-0.0702 -0.24456,-0.25026 z m 1.41621,0.47776 c 0.30334,0 0.56118,-0.23888 0.56118,-0.55549 0,-0.31471 -0.25594,-0.46828 -0.47207,-0.46828 -0.30524,0 -0.56307,0.23888 -0.56307,0.55739 0,0.31282 0.25783,0.46638 0.47396,0.46638 z m -0.22561,-0.47397 c 0,-0.20854 0.14978,-0.32419 0.29955,-0.32419 0.11375,0 0.24078,0.0815 0.24078,0.25026 0,0.20665 -0.14978,0.32229 -0.30145,0.32229 -0.11375,0 -0.23888,-0.0815 -0.23888,-0.24836 z m 0.87969,0.45501 h 0.25405 l 0.0569,-0.53842 c 0.0152,-0.14409 0.0929,-0.23888 0.2294,-0.23888 0.13461,0 0.20665,0.0948 0.18959,0.23888 l -0.055,0.53842 h 0.25405 l 0.0607,-0.58013 c 0.0303,-0.29955 -0.13271,-0.42468 -0.33367,-0.42468 -0.14598,0 -0.24836,0.0645 -0.31092,0.14788 l 0.0531,-0.48913 h -0.25594 z m 1.12236,0 h 0.25404 l 0.0569,-0.53842 c 0.0152,-0.14409 0.0929,-0.23888 0.2294,-0.23888 0.13461,0 0.20475,0.0948 0.18959,0.23888 l -0.055,0.53842 h 0.25404 l 0.0607,-0.58013 c 0.0303,-0.29955 -0.13271,-0.42468 -0.33367,-0.42468 -0.14598,0 -0.25026,0.0645 -0.31282,0.14978 l 0.0133,-0.13082 h -0.25405 z"
         id="path62" />
      <path
         style="font-family:Arial;-inkscape-font-specification:'Arial Bold Italic'"
         d="m 304.24253,149.93255 h 0.51562 l -0.0537,0.25642 h -0.51563 z"
         id="path63" />
      <path
         d="m 304.48541,150.91591 h 0.0682 c 0.31093,0 0.47018,-0.12324 0.5043,-0.43037 l 0.0967,-0.92139 h -0.25594 l -0.0929,0.89675 c -0.0208,0.182 -0.10048,0.21992 -0.23888,0.21992 h -0.055 z m 0.42847,-1.48826 h 0.25594 l 0.0227,-0.22371 h -0.25594 z m 0.80574,1.14131 c 0.30334,0 0.56118,-0.23888 0.56118,-0.55549 0,-0.31471 -0.25594,-0.46828 -0.47207,-0.46828 -0.30523,0 -0.56307,0.23888 -0.56307,0.55739 0,0.31282 0.25784,0.46638 0.47396,0.46638 z m -0.2256,-0.47397 c 0,-0.20854 0.14977,-0.32419 0.29954,-0.32419 0.11376,0 0.24078,0.0815 0.24078,0.25026 0,0.20665 -0.14978,0.32229 -0.30144,0.32229 -0.11376,0 -0.23888,-0.0815 -0.23888,-0.24836 z m 0.87968,0.45501 h 0.25405 l 0.0569,-0.53842 c 0.0152,-0.14409 0.0929,-0.23888 0.2294,-0.23888 0.13461,0 0.20665,0.0948 0.18959,0.23888 l -0.055,0.53842 h 0.25405 l 0.0607,-0.58013 c 0.0303,-0.29955 -0.13272,-0.42468 -0.33368,-0.42468 -0.14598,0 -0.24836,0.0645 -0.31092,0.14788 l 0.0531,-0.48913 h -0.25594 z"
         id="path64" />
    </g>
    <path
       style="font-style:italic;font-weight:bold;font-size:1.89587px;font-family:'FONTSPRING DEMO - Visby CF Bold';-inkscape-font-specification:'FONTSPRING DEMO - Visby CF Bold,  Bold Italic';text-align:center;letter-spacing:0px;word-spacing:0px;text-anchor:middle;fill:#00ffff;stroke-width:0.0130621;stroke-linecap:round;stroke-linejoin:round"
       d="m 287.22295,152.06734 h 0.25405 l 0.0588,-0.56118 c 0.0152,-0.14029 0.0929,-0.21613 0.20855,-0.21613 0.11375,0 0.1801,0.0758 0.16494,0.21613 l -0.0588,0.56118 h 0.25594 l 0.0607,-0.57256 c 0.0303,-0.30144 -0.11565,-0.43225 -0.32799,-0.43225 -0.15925,0 -0.26921,0.0739 -0.33367,0.16683 -0.0531,-0.11565 -0.15546,-0.16683 -0.28059,-0.16683 -0.13271,0 -0.22751,0.0607 -0.28628,0.14219 l 0.0133,-0.12324 h -0.25404 l -0.10238,0.98586 h 0.25405 l 0.0588,-0.56118 c 0.0152,-0.14029 0.091,-0.21613 0.20665,-0.21613 0.11565,0 0.18011,0.0758 0.16494,0.21613 z m 1.55083,0.019 c 0.30333,0 0.56117,-0.23888 0.56117,-0.55549 0,-0.31472 -0.25594,-0.46828 -0.47207,-0.46828 -0.30523,0 -0.56307,0.23888 -0.56307,0.55738 0,0.31282 0.25784,0.46639 0.47397,0.46639 z m -0.22561,-0.47397 c 0,-0.20855 0.14977,-0.3242 0.29954,-0.3242 0.11376,0 0.24078,0.0815 0.24078,0.25026 0,0.20665 -0.14977,0.3223 -0.30144,0.3223 -0.11376,0 -0.23888,-0.0815 -0.23888,-0.24836 z m 1.30436,0.47397 c 0.17062,0 0.29575,-0.0967 0.32609,-0.15167 h 0.0114 l -0.0152,0.13271 h 0.25595 l 0.14029,-1.34607 h -0.25405 l -0.0531,0.49293 h -0.0114 c -0.0227,-0.055 -0.12323,-0.15167 -0.30523,-0.15167 -0.29386,0 -0.51757,0.25404 -0.51757,0.56686 0,0.30144 0.20665,0.45691 0.42278,0.45691 z m -0.16874,-0.47776 c 0,-0.20476 0.15547,-0.31851 0.30524,-0.31851 0.11944,0 0.24646,0.0702 0.24646,0.25026 0,0.20475 -0.15736,0.3185 -0.30713,0.3185 -0.11944,0 -0.24457,-0.0702 -0.24457,-0.25025 z m 0.94036,0.4588 h 0.25404 l 0.10238,-0.98586 h -0.25405 z m 0.11564,-1.12236 h 0.25595 l 0.0227,-0.22371 h -0.25594 z m 0.49672,0.0853 -0.006,0.0512 h -0.12703 l -0.0208,0.20286 h 0.12702 l -0.0815,0.783 h 0.25405 l 0.0834,-0.783 h 0.25215 l 0.0209,-0.20286 h -0.25215 l 0.004,-0.036 c 0.009,-0.0986 0.0626,-0.14977 0.15925,-0.14977 0.0247,0 0.0682,0.002 0.10617,0.0208 l 0.0209,-0.19906 c -0.0512,-0.0322 -0.11755,-0.0379 -0.16494,-0.0379 -0.1384,0 -0.34505,0.0588 -0.37539,0.35074 z m 0.52705,1.03704 h 0.25405 l 0.10238,-0.98586 h -0.25405 z m 0.11565,-1.12236 h 0.25594 l 0.0227,-0.22371 h -0.25594 z m 0.80385,1.14132 c 0.17063,0 0.31092,-0.072 0.40572,-0.17442 l -0.10048,-0.12324 c -0.0796,0.0607 -0.16684,0.0891 -0.26163,0.0891 -0.14409,0 -0.25595,-0.0682 -0.28249,-0.20475 h 0.7375 c 0.0967,-0.42847 -0.17063,-0.61047 -0.42657,-0.61047 -0.29955,0 -0.54412,0.24077 -0.54412,0.55549 0,0.30523 0.21992,0.46828 0.47207,0.46828 z m -0.2275,-0.5991 c 0.0398,-0.12323 0.14029,-0.21044 0.28059,-0.21044 0.12323,0 0.23319,0.0663 0.23888,0.21044 z m 1.26075,0.5991 c 0.17063,0 0.29576,-0.0967 0.32609,-0.15167 h 0.0114 l -0.0152,0.13271 h 0.25594 l 0.14029,-1.34607 h -0.25404 l -0.0531,0.49293 h -0.0114 c -0.0227,-0.055 -0.12323,-0.15167 -0.30524,-0.15167 -0.29386,0 -0.51757,0.25404 -0.51757,0.56686 0,0.30144 0.20665,0.45691 0.42278,0.45691 z m -0.16873,-0.47776 c 0,-0.20476 0.15546,-0.31851 0.30523,-0.31851 0.11944,0 0.24647,0.0702 0.24647,0.25026 0,0.20475 -0.15736,0.3185 -0.30714,0.3185 -0.11944,0 -0.24456,-0.0702 -0.24456,-0.25025 z m 1.96412,0.47776 c 0.28628,0 0.5062,-0.25974 0.5062,-0.57445 0,-0.29955 -0.20476,-0.44932 -0.41709,-0.44932 -0.17442,0 -0.29766,0.0967 -0.33368,0.15167 h -0.0114 l 0.0531,-0.49293 h -0.25404 l -0.1403,1.34607 h 0.25405 l 0.0152,-0.13271 h 0.009 c 0.0265,0.055 0.1384,0.15167 0.31851,0.15167 z m -0.29955,-0.47397 c 0,-0.21613 0.16494,-0.3223 0.31093,-0.3223 0.12133,0 0.24077,0.0739 0.24077,0.24646 0,0.21613 -0.16494,0.3223 -0.31092,0.3223 -0.12134,0 -0.24078,-0.0739 -0.24078,-0.24646 z m 0.95931,0.81522 h 0.25594 l 0.70527,-1.34607 h -0.26543 l -0.34125,0.68252 -0.19907,-0.68252 h -0.26163 l 0.30713,0.9669 z m 1.41242,-0.36021 h 0.25405 l 0.0569,-0.53843 c 0.0152,-0.14409 0.0929,-0.23888 0.2294,-0.23888 0.1346,0 0.20665,0.0948 0.18958,0.23888 l -0.055,0.53843 h 0.25405 l 0.0607,-0.58014 c 0.0303,-0.29955 -0.13271,-0.42467 -0.33367,-0.42467 -0.14599,0 -0.24836,0.0645 -0.31093,0.14787 l 0.0531,-0.48913 h -0.25595 z m 1.54704,0.019 c 0.17062,0 0.29575,-0.0967 0.32609,-0.15167 h 0.0114 l -0.0152,0.13271 h 0.25595 l 0.10237,-0.98586 h -0.25404 l -0.0152,0.13272 h -0.0114 c -0.0227,-0.055 -0.12323,-0.15167 -0.30523,-0.15167 -0.29386,0 -0.51757,0.25404 -0.51757,0.56686 0,0.30144 0.20665,0.45691 0.42278,0.45691 z m -0.16874,-0.47776 c 0,-0.20476 0.15546,-0.31851 0.30524,-0.31851 0.11944,0 0.24646,0.0702 0.24646,0.25026 0,0.20475 -0.15736,0.3185 -0.30713,0.3185 -0.11944,0 -0.24457,-0.0702 -0.24457,-0.25025 z m 1.36693,0.4588 h 0.25404 l 0.0569,-0.53843 c 0.0152,-0.14409 0.0929,-0.23888 0.2294,-0.23888 0.13461,0 0.20665,0.0948 0.18959,0.23888 l -0.055,0.53843 h 0.25404 l 0.0607,-0.58014 c 0.0303,-0.29955 -0.13271,-0.42467 -0.33367,-0.42467 -0.14598,0 -0.24836,0.0645 -0.31092,0.14787 l 0.0531,-0.48913 h -0.25594 z m 1.54703,0.019 c 0.17063,0 0.29575,-0.0967 0.32609,-0.15167 h 0.0114 l -0.0152,0.13271 h 0.25594 l 0.10238,-0.98586 h -0.25405 l -0.0152,0.13272 h -0.0114 c -0.0227,-0.055 -0.12323,-0.15167 -0.30524,-0.15167 -0.29386,0 -0.51757,0.25404 -0.51757,0.56686 0,0.30144 0.20665,0.45691 0.42278,0.45691 z m -0.16873,-0.47776 c 0,-0.20476 0.15546,-0.31851 0.30523,-0.31851 0.11944,0 0.24646,0.0702 0.24646,0.25026 0,0.20475 -0.15735,0.3185 -0.30713,0.3185 -0.11944,0 -0.24456,-0.0702 -0.24456,-0.25025 z m 1.36692,0.4588 h 0.25405 l 0.0569,-0.53843 c 0.0152,-0.14409 0.0929,-0.23888 0.2294,-0.23888 0.13461,0 0.20665,0.0948 0.18959,0.23888 l -0.055,0.53843 h 0.25405 l 0.0607,-0.58014 c 0.0303,-0.29955 -0.13272,-0.42467 -0.33368,-0.42467 -0.14598,0 -0.24836,0.0645 -0.31092,0.14787 l 0.0531,-0.48913 h -0.25594 z m 1.54703,0.019 c 0.17063,0 0.29576,-0.0967 0.32609,-0.15167 h 0.0114 l -0.0152,0.13271 h 0.25594 l 0.10238,-0.98586 h -0.25405 l -0.0152,0.13272 h -0.0114 c -0.0227,-0.055 -0.12323,-0.15167 -0.30523,-0.15167 -0.29386,0 -0.51758,0.25404 -0.51758,0.56686 0,0.30144 0.20665,0.45691 0.42278,0.45691 z m -0.16873,-0.47776 c 0,-0.20476 0.15546,-0.31851 0.30524,-0.31851 0.11944,0 0.24646,0.0702 0.24646,0.25026 0,0.20475 -0.15736,0.3185 -0.30713,0.3185 -0.11944,0 -0.24457,-0.0702 -0.24457,-0.25025 z"
       id="text59"
       aria-label="modified by ha ha ha" />
  </g>
</svg>
