<?xml version="1.0" encoding="UTF-8" standalone="no"?>
<!-- Created with Inkscape (http://www.inkscape.org/) -->

<svg
   width="210mm"
   height="297mm"
   viewBox="0 0 210 297"
   version="1.1"
   id="svg1"
   inkscape:version="1.4 (e7c3feb1, 2024-10-09)"
   sodipodi:docname="ciao.svg"
   xmlns:inkscape="http://www.inkscape.org/namespaces/inkscape"
   xmlns:sodipodi="http://sodipodi.sourceforge.net/DTD/sodipodi-0.dtd"
   xmlns="http://www.w3.org/2000/svg"
   xmlns:svg="http://www.w3.org/2000/svg">
  <sodipodi:namedview
     id="namedview1"
     pagecolor="#ffffff"
     bordercolor="#000000"
     borderopacity="0.25"
     inkscape:showpageshadow="2"
     inkscape:pageopacity="0.0"
     inkscape:pagecheckerboard="0"
     inkscape:deskcolor="#d1d1d1"
     inkscape:document-units="mm"
     inkscape:zoom="4.0293191"
     inkscape:cx="253.14451"
     inkscape:cy="337.6501"
     inkscape:window-width="1728"
     inkscape:window-height="1080"
     inkscape:window-x="0"
     inkscape:window-y="37"
     inkscape:window-maximized="0"
     inkscape:current-layer="layer1" />
  <defs
     id="defs1" />
  <g
     inkscape:label="Layer 1"
     inkscape:groupmode="layer"
     id="layer1">
    <path
       d="m 55.888293,91.787573 c 0.0787,-0.0422 0.15022,-0.0984 0.15908,-0.125 0.0234,-0.0702 -0.14384,-0.0592 -0.26035,0.0171 -0.17088,0.11196 -0.35371,-0.0222 -0.35486,-0.26041 -9e-4,-0.24066 0.27152,-0.38036 0.29868,-0.15302 0.0263,0.2205 0.28578,0.23832 0.31803,0.0219 0.0511,-0.34313 -0.81457,-0.33313 -0.97883,0.0113 -0.18635,0.39079 0.37516,0.72578 0.81825,0.48814 z m 1.20994,-0.004 c 0,-0.0442 -0.0328,-0.0865 -0.0729,-0.0942 -0.056,-0.0107 -0.0828,-0.0816 -0.11536,-0.30515 l -0.0424,-0.29125 -0.18674,0.006 c -0.27719,0.009 -0.28,0.01 -0.3065,0.0787 -0.0162,0.0425 0.0102,0.0771 0.0788,0.10314 0.13563,0.0515 0.1488,0.30397 0.0201,0.38437 -0.20299,0.12677 -0.10497,0.19868 0.27085,0.19868 0.3219,0 0.35418,-0.007 0.35418,-0.0803 z m 0.88446,0.0335 c 0.0655,-0.035 0.14306,-0.0333 0.30982,0.006 0.29151,0.0699 0.43077,0.0158 0.43077,-0.1674 0,-0.1279 -0.0965,-0.17907 -0.13919,-0.0738 -0.0367,0.0903 -0.10948,-0.0581 -0.11018,-0.22438 -8.9e-4,-0.20978 -0.13932,-0.29435 -0.52003,-0.31768 -0.32819,-0.0201 -0.54542,0.0909 -0.43599,0.22273 0.0746,0.0899 0.25078,0.0744 0.27662,-0.0244 0.0338,-0.12934 0.31501,-0.12106 0.29623,0.009 -0.0136,0.0935 -0.0322,0.10059 -0.46344,0.17638 -0.22952,0.0403 -0.28598,0.281 -0.0957,0.40804 0.0702,0.0469 0.35319,0.0375 0.45112,-0.0148 z m -0.13443,-0.22333 c 0,-0.0621 0.19143,-0.13577 0.23626,-0.0909 0.0132,0.0132 0.0129,0.053 -5.9e-4,0.0884 -0.0321,0.0837 -0.23563,0.086 -0.23563,0.003 z m 2.18659,0.18414 c 0.26375,-0.12787 0.25171,-0.52557 -0.0201,-0.66424 -0.44309,-0.22605 -1.00225,-0.0316 -0.99845,0.34729 0.004,0.33992 0.59287,0.52334 1.01857,0.31695 z m -0.54302,-0.1418 c -0.17174,-0.17173 -0.0852,-0.43898 0.14217,-0.43898 0.15461,0 0.21431,0.0705 0.21431,0.25324 0,0.24544 -0.19512,0.34711 -0.35648,0.18574 z m -2.66431,-0.76581 c 0,-0.0827 -0.0236,-0.1069 -0.11459,-0.11736 -0.11359,-0.0131 -0.17027,0.13112 -0.0851,0.21634 0.069,0.069 0.19964,0.004 0.19964,-0.099 z"
       style="fill:#ff0000;stroke-width:0.0781272"
       id="path1-7" />
  </g>
</svg>
