<?xml version="1.0" standalone="no"?>
 <!DOCTYPE svg PUBLIC "-//W3C//DTD SVG 1.1//EN" 
 "http://www.w3.org/Graphics/SVG/1.1/DTD/svg11.dtd"> 
<svg
  xmlns:svg="http://www.w3.org/2000/svg"
  xmlns="http://www.w3.org/2000/svg"
  xmlns:xlink="http://www.w3.org/1999/xlink"
  version="1.1"
  width="419.9890mm" height="297.0022mm" viewBox="0.0000 0.0000 419.9890 297.0022">
<title>SVG Image created as Blasphemy-Edge_Cuts.svg date 2025/06/06 20:24:46 </title>
  <desc>Image generated by PCBNEW </desc>
<g style="fill:#000000; fill-opacity:1.0000;stroke:#000000; stroke-opacity:1.0000;
stroke-linecap:round; stroke-linejoin:round;"
 transform="translate(0 0) scale(1 1)">
</g>
<g style="fill:none; 
stroke:#000000; stroke-width:0.0500; stroke-opacity:1; 
stroke-linecap:round; stroke-linejoin:round;">
<path d="M235.8477 -7.9088 A4.9999 4.9999 0.0 0 0 230.8477 -12.9088" />
<path d="M189.8610 75.3376 A5.0000 5.0000 0.0 0 0 194.2513 70.3768" />
<path d="M230.8477 -12.9088
L-14.2311 -12.9042
" />
<path d="M189.8610 75.3376
L131.1348 82.5523
" />
<path d="M87.3442 82.5510 A5.0000 5.0000 0.0 0 0 87.9531 82.5883" />
<path d="M-19.2352 46.0695 A5.0000 5.0000 0.0 0 0 -14.8450 51.0326" />
<path d="M23.3894 70.2752 A5.0000 5.0000 0.0 0 0 27.7803 75.2409" />
<path d="M-14.8450 51.0326
L19.0051 55.1917
" />
<path d="M23.3953 60.1573 A5.0000 5.0000 0.0 0 0 19.0051 55.1917" />
<path d="M-14.2311 -12.9042 A5.0000 5.0000 0.0 0 0 -19.2310 -7.9045" />
<path d="M231.4606 51.3247 A5.0000 5.0000 0.0 0 0 235.8478 46.3624" />
<path d="M-19.2310 -7.9045
L-19.2352 46.0695
" />
<path d="M-17.5772 -12.9104
L-17.5435 -12.9104
" />
<path d="M198.6422 55.3777
L231.4606 51.3247
" />
<path d="M130.5249 82.5896 A4.9997 4.9997 0.0 0 0 131.1348 82.5523" />
<path d="M194.2513 70.3768
L194.2550 60.3382
" />
<path d="M198.6422 55.3777 A5.0000 5.0000 0.0 0 0 194.2550 60.3382" />
<path d="M235.8478 46.3624
L235.8478 -7.9088
" />
<path d="M87.9531 82.5883
L130.5249 82.5896
" />
<path d="M27.7803 75.2409
L87.3442 82.5510
" />
<path d="M23.3894 70.2752
L23.3953 60.1573
" />
</g> 
</svg>
