0
SECTION
2
HEADER
9
$INSUNITS
70
4
0
ENDSEC
0
SECTION
2
TABLES
0
TABLE
2
LTYPE
0
LTYPE
72
65
70
64
2
CONTINUOUS
3
______
73
0
40
0
0
ENDTAB
0
TABLE
2
LAYER
0
ENDTAB
0
ENDSEC
0
SECTION
2
ENTITIES
0
LINE
8
0
10
-18.5851541
20
-81.5368999
11
-1.0226541
21
-81.5368999
0
LINE
8
0
10
8.9773459
20
-81.5368999
11
236.5398459
21
-81.5368999
0
LINE
8
0
10
236.5398459
20
-81.5368999
11
236.5398459
21
13.9631001
0
LINE
8
0
10
236.5398459
20
13.9631001
11
-18.5851541
21
13.9631001
0
LINE
8
0
10
-18.5851541
20
13.9631001
11
-18.5851541
21
-81.5368999
0
LINE
8
0
10
-1.0226541
20
-81.9368999
11
8.9773459
21
-81.9368999
0
LINE
8
0
10
8.9773459
20
-81.9368999
11
8.9773459
21
-81.5368999
0
LINE
8
0
10
-1.0226541
20
-81.5368999
11
-1.0226541
21
-81.9368999
0
CIRCLE
8
0
10
0
20
0
40
2.8
0
CIRCLE
8
0
10
18.8583769
20
-2.3155175
40
2.8
0
CIRCLE
8
0
10
37.7167538
20
-4.631035
40
2.8
0
CIRCLE
8
0
10
56.5751306
20
-6.9465526
40
2.8
0
CIRCLE
8
0
10
82.5053989
20
-10.1303892
40
2.8
0
CIRCLE
8
0
10
217.9546918
20
0
40
2.8
0
CIRCLE
8
0
10
199.0963149
20
-2.3155175
40
2.8
0
CIRCLE
8
0
10
180.237938
20
-4.631035
40
2.8
0
CIRCLE
8
0
10
161.3795612
20
-6.9465526
40
2.8
0
CIRCLE
8
0
10
135.4492929
20
-10.1303892
40
2.8
0
CIRCLE
8
0
10
0.0417796
20
-19.1478166
40
2.8
0
CIRCLE
8
0
10
21.2574536
20
-21.7527738
40
2.8
0
CIRCLE
8
0
10
40.1158305
20
-24.0682913
40
2.8
0
CIRCLE
8
0
10
58.9742074
20
-26.3838089
40
2.8
0
CIRCLE
8
0
10
82.5471785
20
-29.2782058
40
2.8
0
CIRCLE
8
0
10
217.9129122
20
-19.1478166
40
2.8
0
CIRCLE
8
0
10
196.6972382
20
-21.7527738
40
2.8
0
CIRCLE
8
0
10
177.8388613
20
-24.0682913
40
2.8
0
CIRCLE
8
0
10
158.9804844
20
-26.3838089
40
2.8
0
CIRCLE
8
0
10
135.4075133
20
-29.2782058
40
2.8
0
CIRCLE
8
0
10
-4.631035
20
-37.7167538
40
2.8
0
CIRCLE
8
0
10
14.2273419
20
-40.0322713
40
2.8
0
CIRCLE
8
0
10
33.0857188
20
-42.3477888
40
2.8
0
CIRCLE
8
0
10
51.9440956
20
-44.6633064
40
2.8
0
CIRCLE
8
0
10
77.8743639
20
-47.847143
40
2.8
0
CIRCLE
8
0
10
222.5857268
20
-37.7167538
40
2.8
0
CIRCLE
8
0
10
203.7273499
20
-40.0322713
40
2.8
0
CIRCLE
8
0
10
184.868973
20
-42.3477888
40
2.8
0
CIRCLE
8
0
10
166.0105962
20
-44.6633064
40
2.8
0
CIRCLE
8
0
10
140.0803279
20
-47.847143
40
2.8
0
CIRCLE
8
0
10
37.8420926
20
-62.0744848
40
2.8
0
CIRCLE
8
0
10
63.7723608
20
-65.2583214
40
2.8
0
CIRCLE
8
0
10
82.6307377
20
-67.5738389
40
2.8
0
CIRCLE
8
0
10
180.1125992
20
-62.0744848
40
2.8
0
CIRCLE
8
0
10
154.182331
20
-65.2583214
40
2.8
0
CIRCLE
8
0
10
135.3239541
20
-67.5738389
40
2.8
0
CIRCLE
8
0
10
5.4590038
20
-0.6702814
40
1
0
CIRCLE
8
0
10
24.3173807
20
-2.9857989
40
1
0
CIRCLE
8
0
10
43.1757576
20
-5.3013164
40
1
0
CIRCLE
8
0
10
62.0341344
20
-7.616834
40
1
0
CIRCLE
8
0
10
87.9644027
20
-10.8006706
40
1
0
CIRCLE
8
0
10
212.495688
20
-0.6702814
40
1
0
CIRCLE
8
0
10
193.6373111
20
-2.9857989
40
1
0
CIRCLE
8
0
10
174.7789342
20
-5.3013164
40
1
0
CIRCLE
8
0
10
155.9205574
20
-7.616834
40
1
0
CIRCLE
8
0
10
129.9902891
20
-10.8006706
40
1
0
CIRCLE
8
0
10
5.5007834
20
-19.818098
40
1
0
CIRCLE
8
0
10
26.7164574
20
-22.4230552
40
1
0
CIRCLE
8
0
10
45.5748343
20
-24.7385727
40
1
0
CIRCLE
8
0
10
64.4332112
20
-27.0540903
40
1
0
CIRCLE
8
0
10
88.0061823
20
-29.9484872
40
1
0
CIRCLE
8
0
10
212.4539084
20
-19.818098
40
1
0
CIRCLE
8
0
10
191.2382344
20
-22.4230552
40
1
0
CIRCLE
8
0
10
172.3798575
20
-24.7385727
40
1
0
CIRCLE
8
0
10
153.5214806
20
-27.0540903
40
1
0
CIRCLE
8
0
10
129.9485095
20
-29.9484872
40
1
0
CIRCLE
8
0
10
0.8279688
20
-38.3870352
40
1
0
CIRCLE
8
0
10
19.6863457
20
-40.7025527
40
1
0
CIRCLE
8
0
10
38.5447226
20
-43.0180702
40
1
0
CIRCLE
8
0
10
57.4030994
20
-45.3335878
40
1
0
CIRCLE
8
0
10
83.3333677
20
-48.5174244
40
1
0
CIRCLE
8
0
10
217.126723
20
-38.3870352
40
1
0
CIRCLE
8
0
10
198.2683461
20
-40.7025527
40
1
0
CIRCLE
8
0
10
179.4099692
20
-43.0180702
40
1
0
CIRCLE
8
0
10
160.5515924
20
-45.3335878
40
1
0
CIRCLE
8
0
10
134.6213241
20
-48.5174244
40
1
0
CIRCLE
8
0
10
43.3010964
20
-62.7447662
40
1
0
CIRCLE
8
0
10
69.2313646
20
-65.9286028
40
1
0
CIRCLE
8
0
10
88.0897415
20
-68.2441203
40
1
0
CIRCLE
8
0
10
174.6535954
20
-62.7447662
40
1
0
CIRCLE
8
0
10
148.7233272
20
-65.9286028
40
1
0
CIRCLE
8
0
10
129.8649503
20
-68.2441203
40
1
0
CIRCLE
8
0
10
-5.4590038
20
0.6702814
40
1
0
CIRCLE
8
0
10
13.3993731
20
-1.6452361
40
1
0
CIRCLE
8
0
10
32.25775
20
-3.9607536
40
1
0
CIRCLE
8
0
10
51.1161268
20
-6.2762712
40
1
0
CIRCLE
8
0
10
77.0463951
20
-9.4601078
40
1
0
CIRCLE
8
0
10
223.4136956
20
0.6702814
40
1
0
CIRCLE
8
0
10
204.5553187
20
-1.6452361
40
1
0
CIRCLE
8
0
10
185.6969418
20
-3.9607536
40
1
0
CIRCLE
8
0
10
166.838565
20
-6.2762712
40
1
0
CIRCLE
8
0
10
140.9082967
20
-9.4601078
40
1
0
CIRCLE
8
0
10
-5.4172242
20
-18.4775352
40
1
0
CIRCLE
8
0
10
15.7984498
20
-21.0824924
40
1
0
CIRCLE
8
0
10
34.6568267
20
-23.3980099
40
1
0
CIRCLE
8
0
10
53.5152036
20
-25.7135275
40
1
0
CIRCLE
8
0
10
77.0881747
20
-28.6079244
40
1
0
CIRCLE
8
0
10
223.371916
20
-18.4775352
40
1
0
CIRCLE
8
0
10
202.156242
20
-21.0824924
40
1
0
CIRCLE
8
0
10
183.2978651
20
-23.3980099
40
1
0
CIRCLE
8
0
10
164.4394882
20
-25.7135275
40
1
0
CIRCLE
8
0
10
140.8665171
20
-28.6079244
40
1
0
CIRCLE
8
0
10
-10.0900388
20
-37.0464724
40
1
0
CIRCLE
8
0
10
8.7683381
20
-39.3619899
40
1
0
CIRCLE
8
0
10
27.626715
20
-41.6775074
40
1
0
CIRCLE
8
0
10
46.4850918
20
-43.993025
40
1
0
CIRCLE
8
0
10
72.4153601
20
-47.1768616
40
1
0
CIRCLE
8
0
10
228.0447306
20
-37.0464724
40
1
0
CIRCLE
8
0
10
209.1863537
20
-39.3619899
40
1
0
CIRCLE
8
0
10
190.3279768
20
-41.6775074
40
1
0
CIRCLE
8
0
10
171.4696
20
-43.993025
40
1
0
CIRCLE
8
0
10
145.5393317
20
-47.1768616
40
1
0
CIRCLE
8
0
10
32.3830888
20
-61.4042034
40
1
0
CIRCLE
8
0
10
58.313357
20
-64.58804
40
1
0
CIRCLE
8
0
10
77.1717339
20
-66.9035575
40
1
0
CIRCLE
8
0
10
185.571603
20
-61.4042034
40
1
0
CIRCLE
8
0
10
159.6413348
20
-64.58804
40
1
0
CIRCLE
8
0
10
140.7829579
20
-66.9035575
40
1
0
CIRCLE
8
0
10
108.9773459
20
-8.7868999
40
3.7
0
CIRCLE
8
0
10
0.7190291
20
5.8560223
40
1
0
CIRCLE
8
0
10
19.577406
20
3.5405048
40
1
0
CIRCLE
8
0
10
38.4357829
20
1.2249873
40
1
0
CIRCLE
8
0
10
57.2941597
20
-1.0905303
40
1
0
CIRCLE
8
0
10
83.224428
20
-4.2743669
40
1
0
CIRCLE
8
0
10
217.2356627
20
5.8560223
40
1
0
CIRCLE
8
0
10
198.3772858
20
3.5405048
40
1
0
CIRCLE
8
0
10
179.5189089
20
1.2249873
40
1
0
CIRCLE
8
0
10
160.6605321
20
-1.0905303
40
1
0
CIRCLE
8
0
10
134.7302638
20
-4.2743669
40
1
0
CIRCLE
8
0
10
0.7608087
20
-13.2917943
40
1
0
CIRCLE
8
0
10
21.9764827
20
-15.8967515
40
1
0
CIRCLE
8
0
10
40.8348596
20
-18.212269
40
1
0
CIRCLE
8
0
10
59.6932365
20
-20.5277866
40
1
0
CIRCLE
8
0
10
83.2662076
20
-23.4221835
40
1
0
CIRCLE
8
0
10
217.1938831
20
-13.2917943
40
1
0
CIRCLE
8
0
10
195.9782091
20
-15.8967515
40
1
0
CIRCLE
8
0
10
177.1198322
20
-18.212269
40
1
0
CIRCLE
8
0
10
158.2614553
20
-20.5277866
40
1
0
CIRCLE
8
0
10
134.6884842
20
-23.4221835
40
1
0
CIRCLE
8
0
10
-3.9120059
20
-31.8607315
40
1
0
CIRCLE
8
0
10
14.946371
20
-34.176249
40
1
0
CIRCLE
8
0
10
33.8047479
20
-36.4917665
40
1
0
CIRCLE
8
0
10
52.6631247
20
-38.8072841
40
1
0
CIRCLE
8
0
10
78.593393
20
-41.9911207
40
1
0
CIRCLE
8
0
10
221.8666977
20
-31.8607315
40
1
0
CIRCLE
8
0
10
203.0083208
20
-34.176249
40
1
0
CIRCLE
8
0
10
184.1499439
20
-36.4917665
40
1
0
CIRCLE
8
0
10
165.2915671
20
-38.8072841
40
1
0
CIRCLE
8
0
10
139.3612988
20
-41.9911207
40
1
0
CIRCLE
8
0
10
38.5611217
20
-56.2184625
40
1
0
CIRCLE
8
0
10
64.4913899
20
-59.4022991
40
1
0
CIRCLE
8
0
10
83.3497668
20
-61.7178166
40
1
0
CIRCLE
8
0
10
179.3935701
20
-56.2184625
40
1
0
CIRCLE
8
0
10
153.4633019
20
-59.4022991
40
1
0
CIRCLE
8
0
10
134.604925
20
-61.7178166
40
1
0
CIRCLE
8
0
10
0.4773459
20
-77.1868999
40
1.25
0
CIRCLE
8
0
10
7.4773459
20
-77.1868999
40
1.25
0
CIRCLE
8
0
10
1.4773459
20
-79.6868999
40
1.25
0
CIRCLE
8
0
10
6.4773459
20
-79.6868999
40
1.25
0
CIRCLE
8
0
10
-13.8351541
20
9.2131001
40
1.225
0
CIRCLE
8
0
10
108.9773459
20
9.2131001
40
1.225
0
CIRCLE
8
0
10
231.7893459
20
9.2131001
40
1.225
0
CIRCLE
8
0
10
-13.8351541
20
-76.7868999
40
1.225
0
CIRCLE
8
0
10
108.9773459
20
-76.7868999
40
1.225
0
CIRCLE
8
0
10
231.7898459
20
-76.7868999
40
1.225
0
CIRCLE
8
0
10
-13.8351541
20
9.2131001
40
2.25
0
CIRCLE
8
0
10
108.9773459
20
9.2131001
40
2.25
0
CIRCLE
8
0
10
231.7893459
20
9.2131001
40
2.25
0
CIRCLE
8
0
10
-13.8351541
20
-76.7868999
40
2.25
0
CIRCLE
8
0
10
108.9773459
20
-76.7868999
40
2.25
0
CIRCLE
8
0
10
231.7898459
20
-76.7868999
40
2.25
0
ENDSEC
0
EOF