0
SECTION
2
HEADER
9
$INSUNITS
70
4
0
ENDSEC
0
SECTION
2
TABLES
0
TABLE
2
LTYPE
0
LTYPE
72
65
70
64
2
CONTINUOUS
3
______
73
0
40
0
0
ENDTAB
0
TABLE
2
LAYER
0
ENDTAB
0
ENDSEC
0
SECTION
2
ENTITIES
0
LINE
8
0
10
-10.2526226
20
-8.0102266
11
8.0102266
21
-10.2526226
0
LINE
8
0
10
8.0102266
20
-10.2526226
11
10.2526226
21
8.0102266
0
LINE
8
0
10
10.2526226
20
8.0102266
11
-8.0102266
21
10.2526226
0
LINE
8
0
10
-8.0102266
20
10.2526226
11
-10.2526226
21
-8.0102266
0
LINE
8
0
10
8.6057543
20
-10.3257441
11
26.8686035
21
-12.5681401
0
LINE
8
0
10
26.8686035
20
-12.5681401
11
29.1109995
21
5.6947091
0
LINE
8
0
10
29.1109995
20
5.6947091
11
10.8481503
21
7.9371051
0
LINE
8
0
10
10.8481503
20
7.9371051
11
8.6057543
21
-10.3257441
0
LINE
8
0
10
27.4641312
20
-12.6412616
11
45.7269804
21
-14.8836576
0
LINE
8
0
10
45.7269804
20
-14.8836576
11
47.9693764
21
3.3791916
0
LINE
8
0
10
47.9693764
20
3.3791916
11
29.7065272
21
5.6215876
0
LINE
8
0
10
29.7065272
20
5.6215876
11
27.4641312
21
-12.6412616
0
LINE
8
0
10
46.322508
20
-14.9567792
11
64.5853572
21
-17.1991752
0
LINE
8
0
10
64.5853572
20
-17.1991752
11
66.8277532
21
1.063674
0
LINE
8
0
10
66.8277532
20
1.063674
11
48.564904
21
3.30607
0
LINE
8
0
10
48.564904
20
3.30607
11
46.322508
21
-14.9567792
0
LINE
8
0
10
65.180885
20
-17.2722968
11
97.5875169
21
-21.2513308
0
LINE
8
0
10
67.4232809
20
0.9905524
11
99.8299128
21
-2.9884816
0
LINE
8
0
10
209.9444652
20
-10.2526226
11
228.2073144
21
-8.0102266
0
LINE
8
0
10
228.2073144
20
-8.0102266
11
225.9649184
21
10.2526226
0
LINE
8
0
10
225.9649184
20
10.2526226
11
207.7020692
21
8.0102266
0
LINE
8
0
10
207.7020692
20
8.0102266
11
209.9444652
21
-10.2526226
0
LINE
8
0
10
191.0860883
20
-12.5681401
11
209.3489375
21
-10.3257441
0
LINE
8
0
10
209.3489375
20
-10.3257441
11
207.1065415
21
7.9371051
0
LINE
8
0
10
207.1065415
20
7.9371051
11
188.8436923
21
5.6947091
0
LINE
8
0
10
188.8436923
20
5.6947091
11
191.0860883
21
-12.5681401
0
LINE
8
0
10
172.2277114
20
-14.8836576
11
190.4905606
21
-12.6412616
0
LINE
8
0
10
190.4905606
20
-12.6412616
11
188.2481646
21
5.6215876
0
LINE
8
0
10
188.2481646
20
5.6215876
11
169.9853154
21
3.3791916
0
LINE
8
0
10
169.9853154
20
3.3791916
11
172.2277114
21
-14.8836576
0
LINE
8
0
10
153.3693346
20
-17.1991752
11
171.6321838
21
-14.9567792
0
LINE
8
0
10
171.6321838
20
-14.9567792
11
169.3897878
21
3.30607
0
LINE
8
0
10
169.3897878
20
3.30607
11
151.1269386
21
1.063674
0
LINE
8
0
10
151.1269386
20
1.063674
11
153.3693346
21
-17.1991752
0
LINE
8
0
10
120.3671749
20
-21.2513308
11
152.7738068
21
-17.2722968
0
LINE
8
0
10
118.124779
20
-2.9884816
11
150.5314109
21
0.9905524
0
LINE
8
0
10
-12.5681401
20
-26.8686035
11
10.4093033
21
-29.6898788
0
LINE
8
0
10
-10.3257441
20
-8.6057544
11
12.6516993
21
-11.4270297
0
LINE
8
0
10
11.004831
20
-29.7630004
11
29.2676802
21
-32.0053964
0
LINE
8
0
10
29.2676802
20
-32.0053964
11
31.5100762
21
-13.7425472
0
LINE
8
0
10
31.5100762
20
-13.7425472
11
13.247227
21
-11.5001512
0
LINE
8
0
10
13.247227
20
-11.5001512
11
11.004831
21
-29.7630004
0
LINE
8
0
10
29.8632079
20
-32.0785179
11
48.1260571
21
-34.3209139
0
LINE
8
0
10
48.1260571
20
-34.3209139
11
50.3684531
21
-16.0580647
0
LINE
8
0
10
50.3684531
20
-16.0580647
11
32.1056039
21
-13.8156687
0
LINE
8
0
10
32.1056039
20
-13.8156687
11
29.8632079
21
-32.0785179
0
LINE
8
0
10
48.7215848
20
-34.3940355
11
66.984434
21
-36.6364315
0
LINE
8
0
10
66.984434
20
-36.6364315
11
69.22683
21
-18.3735823
0
LINE
8
0
10
69.22683
20
-18.3735823
11
50.9639808
21
-16.1311863
0
LINE
8
0
10
50.9639808
20
-16.1311863
11
48.7215848
21
-34.3940355
0
LINE
8
0
10
67.5799617
20
-36.7095531
11
95.2719994
21
-40.1097077
0
LINE
8
0
10
69.8223576
20
-18.4467039
11
97.5143953
21
-21.8468585
0
LINE
8
0
10
207.5453885
20
-29.6898788
11
230.5228319
21
-26.8686035
0
LINE
8
0
10
205.3029925
20
-11.4270297
11
228.2804359
21
-8.6057544
0
LINE
8
0
10
188.6870116
20
-32.0053964
11
206.9498608
21
-29.7630004
0
LINE
8
0
10
206.9498608
20
-29.7630004
11
204.7074648
21
-11.5001512
0
LINE
8
0
10
204.7074648
20
-11.5001512
11
186.4446156
21
-13.7425472
0
LINE
8
0
10
186.4446156
20
-13.7425472
11
188.6870116
21
-32.0053964
0
LINE
8
0
10
169.8286347
20
-34.3209139
11
188.0914839
21
-32.0785179
0
LINE
8
0
10
188.0914839
20
-32.0785179
11
185.8490879
21
-13.8156687
0
LINE
8
0
10
185.8490879
20
-13.8156687
11
167.5862387
21
-16.0580647
0
LINE
8
0
10
167.5862387
20
-16.0580647
11
169.8286347
21
-34.3209139
0
LINE
8
0
10
150.9702578
20
-36.6364315
11
169.233107
21
-34.3940355
0
LINE
8
0
10
169.233107
20
-34.3940355
11
166.990711
21
-16.1311863
0
LINE
8
0
10
166.990711
20
-16.1311863
11
148.7278618
21
-18.3735823
0
LINE
8
0
10
148.7278618
20
-18.3735823
11
150.9702578
21
-36.6364315
0
LINE
8
0
10
122.6826924
20
-40.1097077
11
150.3747301
21
-36.7095531
0
LINE
8
0
10
120.4402965
20
-21.8468585
11
148.1323342
21
-18.4467039
0
LINE
8
0
10
-14.8836576
20
-45.7269804
11
3.3791916
21
-47.9693764
0
LINE
8
0
10
3.3791916
20
-47.9693764
11
5.6215876
21
-29.7065272
0
LINE
8
0
10
5.6215876
20
-29.7065272
11
-12.6412616
21
-27.4641312
0
LINE
8
0
10
-12.6412616
20
-27.4641312
11
-14.8836576
21
-45.7269804
0
LINE
8
0
10
3.9747193
20
-48.0424979
11
22.2375685
21
-50.2848939
0
LINE
8
0
10
22.2375685
20
-50.2848939
11
24.4799645
21
-32.0220447
0
LINE
8
0
10
24.4799645
20
-32.0220447
11
6.2171153
21
-29.7796487
0
LINE
8
0
10
6.2171153
20
-29.7796487
11
3.9747193
21
-48.0424979
0
LINE
8
0
10
22.8330962
20
-50.3580154
11
41.0959454
21
-52.6004114
0
LINE
8
0
10
41.0959454
20
-52.6004114
11
43.3383414
21
-34.3375622
0
LINE
8
0
10
43.3383414
20
-34.3375622
11
25.0754922
21
-32.0951662
0
LINE
8
0
10
25.0754922
20
-32.0951662
11
22.8330962
21
-50.3580154
0
LINE
8
0
10
41.691473
20
-52.673533
11
59.9543222
21
-54.915929
0
LINE
8
0
10
59.9543222
20
-54.915929
11
62.1967182
21
-36.6530798
0
LINE
8
0
10
62.1967182
20
-36.6530798
11
43.933869
21
-34.4106838
0
LINE
8
0
10
43.933869
20
-34.4106838
11
41.691473
21
-52.673533
0
LINE
8
0
10
60.54985
20
-54.9890506
11
92.9564819
21
-58.9680846
0
LINE
8
0
10
62.7922459
20
-36.7262014
11
95.1988778
21
-40.7052354
0
LINE
8
0
10
214.5755002
20
-47.9693764
11
232.8383494
21
-45.7269804
0
LINE
8
0
10
232.8383494
20
-45.7269804
11
230.5959534
21
-27.4641312
0
LINE
8
0
10
230.5959534
20
-27.4641312
11
212.3331042
21
-29.7065272
0
LINE
8
0
10
212.3331042
20
-29.7065272
11
214.5755002
21
-47.9693764
0
LINE
8
0
10
195.7171233
20
-50.2848939
11
213.9799725
21
-48.0424979
0
LINE
8
0
10
213.9799725
20
-48.0424979
11
211.7375765
21
-29.7796487
0
LINE
8
0
10
211.7375765
20
-29.7796487
11
193.4747273
21
-32.0220447
0
LINE
8
0
10
193.4747273
20
-32.0220447
11
195.7171233
21
-50.2848939
0
LINE
8
0
10
176.8587464
20
-52.6004114
11
195.1215956
21
-50.3580154
0
LINE
8
0
10
195.1215956
20
-50.3580154
11
192.8791996
21
-32.0951662
0
LINE
8
0
10
192.8791996
20
-32.0951662
11
174.6163504
21
-34.3375622
0
LINE
8
0
10
174.6163504
20
-34.3375622
11
176.8587464
21
-52.6004114
0
LINE
8
0
10
158.0003696
20
-54.915929
11
176.2632188
21
-52.673533
0
LINE
8
0
10
176.2632188
20
-52.673533
11
174.0208228
21
-34.4106838
0
LINE
8
0
10
174.0208228
20
-34.4106838
11
155.7579736
21
-36.6530798
0
LINE
8
0
10
155.7579736
20
-36.6530798
11
158.0003696
21
-54.915929
0
LINE
8
0
10
124.9982099
20
-58.9680846
11
157.4048418
21
-54.9890506
0
LINE
8
0
10
122.755814
20
-40.7052354
11
155.1624459
21
-36.7262014
0
LINE
8
0
10
20.5175787
20
-69.2163924
11
52.9242106
21
-73.1954264
0
LINE
8
0
10
22.7599746
20
-50.9535432
11
55.1666065
21
-54.9325772
0
LINE
8
0
10
53.5197382
20
-73.268548
11
71.7825874
21
-75.510944
0
LINE
8
0
10
71.7825874
20
-75.510944
11
74.0249834
21
-57.2480948
0
LINE
8
0
10
74.0249834
20
-57.2480948
11
55.7621342
21
-55.0056988
0
LINE
8
0
10
55.7621342
20
-55.0056988
11
53.5197382
21
-73.268548
0
LINE
8
0
10
72.3781151
20
-75.5840655
11
90.6409643
21
-77.8264615
0
LINE
8
0
10
90.6409643
20
-77.8264615
11
92.8833603
21
-59.5636123
0
LINE
8
0
10
92.8833603
20
-59.5636123
11
74.6205111
21
-57.3212163
0
LINE
8
0
10
74.6205111
20
-57.3212163
11
72.3781151
21
-75.5840655
0
LINE
8
0
10
165.0304812
20
-73.1954264
11
197.4371131
21
-69.2163924
0
LINE
8
0
10
162.7880853
20
-54.9325772
11
195.1947172
21
-50.9535432
0
LINE
8
0
10
146.1721044
20
-75.510944
11
164.4349536
21
-73.268548
0
LINE
8
0
10
164.4349536
20
-73.268548
11
162.1925576
21
-55.0056988
0
LINE
8
0
10
162.1925576
20
-55.0056988
11
143.9297084
21
-57.2480948
0
LINE
8
0
10
143.9297084
20
-57.2480948
11
146.1721044
21
-75.510944
0
LINE
8
0
10
127.3137275
20
-77.8264615
11
145.5765767
21
-75.5840655
0
LINE
8
0
10
145.5765767
20
-75.5840655
11
143.3341807
21
-57.3212163
0
LINE
8
0
10
143.3341807
20
-57.3212163
11
125.0713315
21
-59.5636123
0
LINE
8
0
10
125.0713315
20
-59.5636123
11
127.3137275
21
-77.8264615
0
LINE
8
0
10
10.4093033
20
-29.6898788
11
12.6516993
21
-11.4270297
0
LINE
8
0
10
-10.3257441
20
-8.6057544
11
-12.5681401
21
-26.8686035
0
LINE
8
0
10
230.5228319
20
-26.8686035
11
228.2804359
21
-8.6057544
0
LINE
8
0
10
205.3029925
20
-11.4270297
11
207.5453885
21
-29.6898788
0
LINE
8
0
10
95.2719994
20
-40.1097077
11
97.5143953
21
-21.8468585
0
LINE
8
0
10
69.8223576
20
-18.4467039
11
67.5799617
21
-36.7095531
0
LINE
8
0
10
150.3747301
20
-36.7095531
11
148.1323342
21
-18.4467039
0
LINE
8
0
10
120.4402965
20
-21.8468585
11
122.6826924
21
-40.1097077
0
LINE
8
0
10
97.5875169
20
-21.2513308
11
99.8299128
21
-2.9884816
0
LINE
8
0
10
67.4232809
20
0.9905524
11
65.180885
21
-17.2722968
0
LINE
8
0
10
152.7738068
20
-17.2722968
11
150.5314109
21
0.9905524
0
LINE
8
0
10
118.124779
20
-2.9884816
11
120.3671749
21
-21.2513308
0
LINE
8
0
10
92.9564819
20
-58.9680846
11
95.1988778
21
-40.7052354
0
LINE
8
0
10
62.7922459
20
-36.7262014
11
60.54985
21
-54.9890506
0
LINE
8
0
10
157.4048418
20
-54.9890506
11
155.1624459
21
-36.7262014
0
LINE
8
0
10
122.755814
20
-40.7052354
11
124.9982099
21
-58.9680846
0
LINE
8
0
10
52.9242106
20
-73.1954264
11
55.1666065
21
-54.9325772
0
LINE
8
0
10
22.7599746
20
-50.9535432
11
20.5175787
21
-69.2163924
0
LINE
8
0
10
197.4371131
20
-69.2163924
11
195.1947172
21
-50.9535432
0
LINE
8
0
10
162.7880853
20
-54.9325772
11
165.0304812
21
-73.1954264
0
ENDSEC
0
EOF