0
SECTION
2
HEADER
9
$INSUNITS
70
4
0
ENDSEC
0
SECTION
2
TABLES
0
TABLE
2
LTYPE
0
LTYPE
72
65
70
64
2
CONTINUOUS
3
______
73
0
40
0
0
ENDTAB
0
TABLE
2
LAYER
0
ENDTAB
0
ENDSEC
0
SECTION
2
ENTITIES
0
LINE
8
0
10
-7.8009085
20
-6.0947377
11
6.0947377
21
-7.8009085
0
LINE
8
0
10
6.0947377
20
-7.8009085
11
7.8009085
21
6.0947377
0
LINE
8
0
10
7.8009085
20
6.0947377
11
-6.0947377
21
7.8009085
0
LINE
8
0
10
-6.0947377
20
7.8009085
11
-7.8009085
21
-6.0947377
0
LINE
8
0
10
11.0574684
20
-8.4102552
11
24.9531146
21
-10.116426
0
LINE
8
0
10
24.9531146
20
-10.116426
11
26.6592854
21
3.7792202
0
LINE
8
0
10
26.6592854
20
3.7792202
11
12.7636392
21
5.485391
0
LINE
8
0
10
12.7636392
20
5.485391
11
11.0574684
21
-8.4102552
0
LINE
8
0
10
29.9158453
20
-10.7257727
11
43.8114915
21
-12.4319435
0
LINE
8
0
10
43.8114915
20
-12.4319435
11
45.5176623
21
1.4637027
0
LINE
8
0
10
45.5176623
20
1.4637027
11
31.6220161
21
3.1698735
0
LINE
8
0
10
31.6220161
20
3.1698735
11
29.9158453
21
-10.7257727
0
LINE
8
0
10
48.7742221
20
-13.0412903
11
62.6698683
21
-14.7474611
0
LINE
8
0
10
62.6698683
20
-14.7474611
11
64.3760391
21
-0.8518149
0
LINE
8
0
10
64.3760391
20
-0.8518149
11
50.4803929
21
0.8543559
0
LINE
8
0
10
50.4803929
20
0.8543559
11
48.7742221
21
-13.0412903
0
LINE
8
0
10
74.7044904
20
-16.2251269
11
88.6001366
21
-17.9312977
0
LINE
8
0
10
88.6001366
20
-17.9312977
11
90.3063074
21
-4.0356515
0
LINE
8
0
10
90.3063074
20
-4.0356515
11
76.4106612
21
-2.3294807
0
LINE
8
0
10
76.4106612
20
-2.3294807
11
74.7044904
21
-16.2251269
0
LINE
8
0
10
211.8599541
20
-7.8009085
11
225.7556003
21
-6.0947377
0
LINE
8
0
10
225.7556003
20
-6.0947377
11
224.0494295
21
7.8009085
0
LINE
8
0
10
224.0494295
20
7.8009085
11
210.1537833
21
6.0947377
0
LINE
8
0
10
210.1537833
20
6.0947377
11
211.8599541
21
-7.8009085
0
LINE
8
0
10
193.0015772
20
-10.116426
11
206.8972234
21
-8.4102552
0
LINE
8
0
10
206.8972234
20
-8.4102552
11
205.1910526
21
5.485391
0
LINE
8
0
10
205.1910526
20
5.485391
11
191.2954064
21
3.7792202
0
LINE
8
0
10
191.2954064
20
3.7792202
11
193.0015772
21
-10.116426
0
LINE
8
0
10
174.1432003
20
-12.4319435
11
188.0388465
21
-10.7257727
0
LINE
8
0
10
188.0388465
20
-10.7257727
11
186.3326757
21
3.1698735
0
LINE
8
0
10
186.3326757
20
3.1698735
11
172.4370295
21
1.4637027
0
LINE
8
0
10
172.4370295
20
1.4637027
11
174.1432003
21
-12.4319435
0
LINE
8
0
10
155.2848235
20
-14.7474611
11
169.1804697
21
-13.0412903
0
LINE
8
0
10
169.1804697
20
-13.0412903
11
167.4742989
21
0.8543559
0
LINE
8
0
10
167.4742989
20
0.8543559
11
153.5786527
21
-0.8518149
0
LINE
8
0
10
153.5786527
20
-0.8518149
11
155.2848235
21
-14.7474611
0
LINE
8
0
10
129.3545552
20
-17.9312977
11
143.2502014
21
-16.2251269
0
LINE
8
0
10
143.2502014
20
-16.2251269
11
141.5440306
21
-2.3294807
0
LINE
8
0
10
141.5440306
20
-2.3294807
11
127.6483844
21
-4.0356515
0
LINE
8
0
10
127.6483844
20
-4.0356515
11
129.3545552
21
-17.9312977
0
LINE
8
0
10
-7.7591289
20
-25.2425543
11
6.1365173
21
-26.9487251
0
LINE
8
0
10
6.1365173
20
-26.9487251
11
7.8426881
21
-13.0530789
0
LINE
8
0
10
7.8426881
20
-13.0530789
11
-6.0529581
21
-11.3469081
0
LINE
8
0
10
-6.0529581
20
-11.3469081
11
-7.7591289
21
-25.2425543
0
LINE
8
0
10
13.4565451
20
-27.8475115
11
27.3521913
21
-29.5536823
0
LINE
8
0
10
27.3521913
20
-29.5536823
11
29.0583621
21
-15.6580361
0
LINE
8
0
10
29.0583621
20
-15.6580361
11
15.1627159
21
-13.9518653
0
LINE
8
0
10
15.1627159
20
-13.9518653
11
13.4565451
21
-27.8475115
0
LINE
8
0
10
32.314922
20
-30.163029
11
46.2105682
21
-31.8691998
0
LINE
8
0
10
46.2105682
20
-31.8691998
11
47.916739
21
-17.9735536
0
LINE
8
0
10
47.916739
20
-17.9735536
11
34.0210928
21
-16.2673828
0
LINE
8
0
10
34.0210928
20
-16.2673828
11
32.314922
21
-30.163029
0
LINE
8
0
10
51.1732989
20
-32.4785466
11
65.0689451
21
-34.1847174
0
LINE
8
0
10
65.0689451
20
-34.1847174
11
66.7751159
21
-20.2890712
0
LINE
8
0
10
66.7751159
20
-20.2890712
11
52.8794697
21
-18.5829004
0
LINE
8
0
10
52.8794697
20
-18.5829004
11
51.1732989
21
-32.4785466
0
LINE
8
0
10
74.74627
20
-35.3729435
11
88.6419162
21
-37.0791143
0
LINE
8
0
10
88.6419162
20
-37.0791143
11
90.348087
21
-23.1834681
0
LINE
8
0
10
90.348087
20
-23.1834681
11
76.4524408
21
-21.4772973
0
LINE
8
0
10
76.4524408
20
-21.4772973
11
74.74627
21
-35.3729435
0
LINE
8
0
10
211.8181745
20
-26.9487251
11
225.7138207
21
-25.2425543
0
LINE
8
0
10
225.7138207
20
-25.2425543
11
224.0076499
21
-11.3469081
0
LINE
8
0
10
224.0076499
20
-11.3469081
11
210.1120037
21
-13.0530789
0
LINE
8
0
10
210.1120037
20
-13.0530789
11
211.8181745
21
-26.9487251
0
LINE
8
0
10
190.6025005
20
-29.5536823
11
204.4981467
21
-27.8475115
0
LINE
8
0
10
204.4981467
20
-27.8475115
11
202.7919759
21
-13.9518653
0
LINE
8
0
10
202.7919759
20
-13.9518653
11
188.8963297
21
-15.6580361
0
LINE
8
0
10
188.8963297
20
-15.6580361
11
190.6025005
21
-29.5536823
0
LINE
8
0
10
171.7441236
20
-31.8691998
11
185.6397698
21
-30.163029
0
LINE
8
0
10
185.6397698
20
-30.163029
11
183.933599
21
-16.2673828
0
LINE
8
0
10
183.933599
20
-16.2673828
11
170.0379528
21
-17.9735536
0
LINE
8
0
10
170.0379528
20
-17.9735536
11
171.7441236
21
-31.8691998
0
LINE
8
0
10
152.8857467
20
-34.1847174
11
166.7813929
21
-32.4785466
0
LINE
8
0
10
166.7813929
20
-32.4785466
11
165.0752221
21
-18.5829004
0
LINE
8
0
10
165.0752221
20
-18.5829004
11
151.1795759
21
-20.2890712
0
LINE
8
0
10
151.1795759
20
-20.2890712
11
152.8857467
21
-34.1847174
0
LINE
8
0
10
129.3127756
20
-37.0791143
11
143.2084218
21
-35.3729435
0
LINE
8
0
10
143.2084218
20
-35.3729435
11
141.502251
21
-21.4772973
0
LINE
8
0
10
141.502251
20
-21.4772973
11
127.6066048
21
-23.1834681
0
LINE
8
0
10
127.6066048
20
-23.1834681
11
129.3127756
21
-37.0791143
0
LINE
8
0
10
-12.4319435
20
-43.8114915
11
1.4637027
21
-45.5176623
0
LINE
8
0
10
1.4637027
20
-45.5176623
11
3.1698735
21
-31.6220161
0
LINE
8
0
10
3.1698735
20
-31.6220161
11
-10.7257727
21
-29.9158453
0
LINE
8
0
10
-10.7257727
20
-29.9158453
11
-12.4319435
21
-43.8114915
0
LINE
8
0
10
6.4264334
20
-46.127009
11
20.3220796
21
-47.8331798
0
LINE
8
0
10
20.3220796
20
-47.8331798
11
22.0282504
21
-33.9375336
0
LINE
8
0
10
22.0282504
20
-33.9375336
11
8.1326042
21
-32.2313628
0
LINE
8
0
10
8.1326042
20
-32.2313628
11
6.4264334
21
-46.127009
0
LINE
8
0
10
25.2848103
20
-48.4425265
11
39.1804565
21
-50.1486973
0
LINE
8
0
10
39.1804565
20
-50.1486973
11
40.8866273
21
-36.2530511
0
LINE
8
0
10
40.8866273
20
-36.2530511
11
26.9909811
21
-34.5468803
0
LINE
8
0
10
26.9909811
20
-34.5468803
11
25.2848103
21
-48.4425265
0
LINE
8
0
10
44.1431871
20
-50.7580441
11
58.0388333
21
-52.4642149
0
LINE
8
0
10
58.0388333
20
-52.4642149
11
59.7450041
21
-38.5685687
0
LINE
8
0
10
59.7450041
20
-38.5685687
11
45.8493579
21
-36.8623979
0
LINE
8
0
10
45.8493579
20
-36.8623979
11
44.1431871
21
-50.7580441
0
LINE
8
0
10
70.0734554
20
-53.9418807
11
83.9691016
21
-55.6480515
0
LINE
8
0
10
83.9691016
20
-55.6480515
11
85.6752724
21
-41.7524053
0
LINE
8
0
10
85.6752724
20
-41.7524053
11
71.7796262
21
-40.0462345
0
LINE
8
0
10
71.7796262
20
-40.0462345
11
70.0734554
21
-53.9418807
0
LINE
8
0
10
216.4909891
20
-45.5176623
11
230.3866353
21
-43.8114915
0
LINE
8
0
10
230.3866353
20
-43.8114915
11
228.6804645
21
-29.9158453
0
LINE
8
0
10
228.6804645
20
-29.9158453
11
214.7848183
21
-31.6220161
0
LINE
8
0
10
214.7848183
20
-31.6220161
11
216.4909891
21
-45.5176623
0
LINE
8
0
10
197.6326122
20
-47.8331798
11
211.5282584
21
-46.127009
0
LINE
8
0
10
211.5282584
20
-46.127009
11
209.8220876
21
-32.2313628
0
LINE
8
0
10
209.8220876
20
-32.2313628
11
195.9264414
21
-33.9375336
0
LINE
8
0
10
195.9264414
20
-33.9375336
11
197.6326122
21
-47.8331798
0
LINE
8
0
10
178.7742353
20
-50.1486973
11
192.6698815
21
-48.4425265
0
LINE
8
0
10
192.6698815
20
-48.4425265
11
190.9637107
21
-34.5468803
0
LINE
8
0
10
190.9637107
20
-34.5468803
11
177.0680645
21
-36.2530511
0
LINE
8
0
10
177.0680645
20
-36.2530511
11
178.7742353
21
-50.1486973
0
LINE
8
0
10
159.9158585
20
-52.4642149
11
173.8115047
21
-50.7580441
0
LINE
8
0
10
173.8115047
20
-50.7580441
11
172.1053339
21
-36.8623979
0
LINE
8
0
10
172.1053339
20
-36.8623979
11
158.2096877
21
-38.5685687
0
LINE
8
0
10
158.2096877
20
-38.5685687
11
159.9158585
21
-52.4642149
0
LINE
8
0
10
133.9855902
20
-55.6480515
11
147.8812364
21
-53.9418807
0
LINE
8
0
10
147.8812364
20
-53.9418807
11
146.1750656
21
-40.0462345
0
LINE
8
0
10
146.1750656
20
-40.0462345
11
132.2794194
21
-41.7524053
0
LINE
8
0
10
132.2794194
20
-41.7524053
11
133.9855902
21
-55.6480515
0
LINE
8
0
10
30.0411841
20
-68.1692225
11
43.9368303
21
-69.8753933
0
LINE
8
0
10
43.9368303
20
-69.8753933
11
45.6430011
21
-55.9797471
0
LINE
8
0
10
45.6430011
20
-55.9797471
11
31.7473549
21
-54.2735763
0
LINE
8
0
10
31.7473549
20
-54.2735763
11
30.0411841
21
-68.1692225
0
LINE
8
0
10
55.9714523
20
-71.3530591
11
69.8670985
21
-73.0592299
0
LINE
8
0
10
69.8670985
20
-73.0592299
11
71.5732693
21
-59.1635837
0
LINE
8
0
10
71.5732693
20
-59.1635837
11
57.6776231
21
-57.4574129
0
LINE
8
0
10
57.6776231
20
-57.4574129
11
55.9714523
21
-71.3530591
0
LINE
8
0
10
74.8298292
20
-73.6685766
11
88.7254754
21
-75.3747474
0
LINE
8
0
10
88.7254754
20
-75.3747474
11
90.4316462
21
-61.4791012
0
LINE
8
0
10
90.4316462
20
-61.4791012
11
76.536
21
-59.7729304
0
LINE
8
0
10
76.536
20
-59.7729304
11
74.8298292
21
-73.6685766
0
LINE
8
0
10
174.0178615
20
-69.8753933
11
187.9135077
21
-68.1692225
0
LINE
8
0
10
187.9135077
20
-68.1692225
11
186.2073369
21
-54.2735763
0
LINE
8
0
10
186.2073369
20
-54.2735763
11
172.3116907
21
-55.9797471
0
LINE
8
0
10
172.3116907
20
-55.9797471
11
174.0178615
21
-69.8753933
0
LINE
8
0
10
148.0875933
20
-73.0592299
11
161.9832395
21
-71.3530591
0
LINE
8
0
10
161.9832395
20
-71.3530591
11
160.2770687
21
-57.4574129
0
LINE
8
0
10
160.2770687
20
-57.4574129
11
146.3814225
21
-59.1635837
0
LINE
8
0
10
146.3814225
20
-59.1635837
11
148.0875933
21
-73.0592299
0
LINE
8
0
10
129.2292164
20
-75.3747474
11
143.1248626
21
-73.6685766
0
LINE
8
0
10
143.1248626
20
-73.6685766
11
141.4186918
21
-59.7729304
0
LINE
8
0
10
141.4186918
20
-59.7729304
11
127.5230456
21
-61.4791012
0
LINE
8
0
10
127.5230456
20
-61.4791012
11
129.2292164
21
-75.3747474
0
ENDSEC
0
EOF